<?xml version="1.0" encoding="UTF-8"?>
<svg id="Layer_2" xmlns="http://www.w3.org/2000/svg" viewBox="0 0 1600 165.33">
  <defs>
    <style>
      .cls-1 {
        fill: #141414;
      }
    </style>
  </defs>
  <g id="Layer_1-2" data-name="Layer_1">
    <g>
      <path class="cls-1" d="M62.5,2.3H0v160.74h62.5c45.43,0,81.73-34.44,81.73-80.37S107.94,2.3,62.5,2.3ZM62.5,127.44h-24.04V37.89h24.04c24.04,0,43.27,18.37,43.27,44.78s-19.23,44.78-43.27,44.78Z"/>
      <path class="cls-1" d="M235.57,0c-45.43,0-81.73,34.21-81.73,82.67s36.3,82.67,81.73,82.67,81.74-34.22,81.74-82.67S281,0,235.57,0ZM235.57,129.74c-24.04,0-43.27-18.37-43.27-47.07s19.23-47.07,43.27-47.07,43.27,18.37,43.27,47.07-19.23,47.07-43.27,47.07Z"/>
      <polygon class="cls-1" points="437.19 98.74 432.38 98.74 379.49 2.3 332.61 2.3 332.61 163.04 371.08 163.04 371.08 66.59 375.89 66.59 428.77 163.04 475.65 163.04 475.65 2.3 437.19 2.3 437.19 98.74"/>
      <polygon class="cls-1" points="604.24 98.74 599.43 98.74 546.54 2.3 499.67 2.3 499.67 163.04 538.13 163.04 538.13 66.59 542.94 66.59 595.82 163.04 642.7 163.04 642.7 2.3 604.24 2.3 604.24 98.74"/>
      <path class="cls-1" d="M857.82,117.11c0,6.89-3.61,10.33-10.82,10.33h-40.41L761.68,2.3h-55.29l-57.69,160.74h42.07l10.82-32.15h64.91l10.82,32.15h81.72c24.04,0,37.26-12.63,37.26-35.59V2.3h-38.46v114.82ZM712.4,98.74l19.23-57.41h4.81l19.23,57.41h-43.27Z"/>
      <path class="cls-1" d="M958.78,2.3l-57.69,160.74h42.07l10.82-32.15h64.91l10.82,32.15h42.07L1014.07,2.3h-55.29ZM964.79,98.74l19.23-57.41h4.81l19.23,57.41h-43.27Z"/>
      <polygon class="cls-1" points="1175.12 102.18 1170.31 102.18 1136.65 2.3 1077.76 2.3 1077.76 163.04 1116.22 163.04 1116.22 64.3 1121.03 64.3 1154.68 163.04 1190.75 163.04 1224.4 64.3 1229.21 64.3 1229.21 163.04 1267.67 163.04 1267.67 2.3 1208.77 2.3 1175.12 102.18"/>
      <polygon class="cls-1" points="1291.69 163.04 1407.08 163.04 1407.08 129.74 1330.15 129.74 1330.15 98.74 1402.27 98.74 1402.27 66.59 1330.15 66.59 1330.15 35.59 1407.08 35.59 1407.08 2.3 1291.69 2.3 1291.69 163.04"/>
      <path class="cls-1" d="M1505.62,68.89l-26.44-4.59c-15.63-2.76-20.43-6.89-20.43-14.93,0-9.19,8.17-17.22,25.24-17.22,18.99,0,30.05,10.33,30.05,22.96h38.46c0-32.15-24.04-55.11-68.51-55.11-41.11,0-63.7,21.81-63.7,49.37,0,25.49,14.42,39.5,44.47,44.78l26.44,4.59c18.27,3.44,24.04,9.18,24.04,17.22,0,9.19-8.41,17.22-28.85,17.22s-31.25-10.1-31.25-22.96h-38.46c0,31,25.48,55.11,69.71,55.11s67.31-21.82,67.31-49.37-14.42-41.33-48.08-47.07Z"/>
      <rect class="cls-1" x="1562.11" y="125.15" width="37.89" height="37.89"/>
    </g>
  </g>
</svg>